<svg xmlns="http://www.w3.org/2000/svg" enable-background="new 0 0 1500 1500" viewBox="0 0 1500 1500"><text fill="#a6c1e8" font-family="NimbusSanL-Bol" font-size="29.954" transform="matrix(1.3068 0 0 1 852.152 283.732)">&lt;p1/&gt;</text><path fill="#c8dbfb" d="M1330.56,752.81l10.53-0.95l-1.39-15.65l-10.06,0.89c-1.24-4.69-3.36-9.17-6.35-13.18l6.45-7.7l-12.06-10.1    l-6.11,7.3c-4.46-2.61-9.3-4.24-14.23-4.92l-0.85-9.46l-14.37,1.27l-1.28,0.12l0.81,9.09c-1.13,0.31-2.23,0.66-3.32,1.07    c-1.27,0.47-2.51,1-3.73,1.61c-2.31,1.14-4.53,2.54-6.62,4.16l-7.13-5.97l-10.09,12.06l7.01,5.87c-2.52,4.56-4.05,9.48-4.61,14.48    l-8.3,0.73l-1.19,0.11l1.4,15.67l9.51-0.85c0.38,1.24,0.81,2.47,1.33,3.68c1.37,3.35,3.24,6.53,5.58,9.45l-6.46,7.72l10.44,8.74    l1.62,1.35l6.51-7.77c0.87,0.46,1.74,0.89,2.63,1.27c1.14,0.52,2.3,0.96,3.48,1.34c2.5,0.85,5.05,1.4,7.63,1.7l0.94,10.56    l15.67-1.4l-0.93-10.49c4.5-1.33,8.8-3.46,12.64-6.41l8.28,6.93l10.1-12.06l-8.07-6.74    C1328.35,762.05,1329.88,757.47,1330.56,752.81z M1308.52,761.25c-6.72,8.02-18.13,9.77-26.84,4.6c-0.96-0.56-1.9-1.22-2.8-1.97    c-0.32-0.26-0.62-0.53-0.92-0.81c-1.47-1.39-2.7-2.94-3.69-4.62c-3.9-6.59-3.96-14.95,0.14-21.65c0.54-0.88,1.15-1.74,1.83-2.55    c0.6-0.73,1.24-1.4,1.93-2.01c1.16-1.08,2.42-2,3.75-2.74c7.42-4.26,17-3.7,23.96,2.1    C1314.79,739.07,1315.96,752.34,1308.52,761.25z"/><path fill="#a6c1e8" d="M1280.58,378.52l-2.7,397.08c-0.02,3.52-1.1,6.78-2.94,9.48c-3.09,4.57-8.35,7.55-14.28,7.51l-180.49-1.23    c-5.38-0.04-10.18-2.56-13.28-6.48c-2.35-2.94-3.74-6.69-3.71-10.74l2.7-397.08c0.06-9.44,7.78-17.05,17.22-16.99l180.49,1.23    C1273.04,361.36,1280.64,369.08,1280.58,378.52z"/><path fill="#097eb2" d="M1279.49,365.11c-3.78-4.57-9.49-7.49-15.86-7.53l-180.49-1.23c-6.39-0.05-12.14,2.82-15.98,7.34     c-3.09,3.61-4.96,8.26-4.99,13.34l-0.02,4.79l-2.18,322.07l-0.05,5.65l-0.43,64.58c-0.04,4.74,1.57,9.39,4.51,13.08     c3.93,4.97,9.83,7.84,16.17,7.89l17.38,0.12l163.1,1.09c6.98,0.06,13.48-3.36,17.38-9.12c0.65-0.94,1.21-1.93,1.68-2.96     c1.24-2.67,1.9-5.59,1.91-8.58l0.07-9.77l0.25-36.34l0.2-29.21l2.15-316.99l0.02-4.77     C1284.34,373.45,1282.53,368.75,1279.49,365.11z M1276.82,383.25l-2.23,328.94l-0.18,24.61l-0.14,21.65l-0.12,17.11     c-0.01,2.68-0.81,5.23-2.3,7.42c-1.59,2.35-3.83,4.09-6.4,5.04c-1.5,0.55-3.11,0.85-4.77,0.83l-161.37-1.1l-19.12-0.13     c-4.07-0.01-7.86-1.87-10.39-5.07c-1.91-2.41-2.91-5.31-2.9-8.4l0.43-64.62l0.05-5.54l2.18-322.13l0.04-4.79     c0.05-7.28,5.95-13.19,13.19-13.28c0.09-0.01,0.19-0.01,0.28-0.01l67.93,0.47l112.56,0.76c7.37,0.06,13.35,6.11,13.29,13.47     L1276.82,383.25z"/><path fill="#097eb2" d="M1284.3,378.54l-0.03,4.76l-3.72-0.03l-3.72-0.02l-78.82-0.53c-0.05,9.35-7.69,16.87-17.03,16.81l-15.68-0.11    c-9.35-0.05-16.87-7.69-16.81-17.03l-78.92-0.53l-3.72-0.02l-3.72-0.02l0.03-4.79c0.03-5.09,1.9-9.74,4.98-13.34l5.3,0.03    l10.35,0.08l68.21,0.45l123.18,0.82l5.3,0.04C1282.53,368.76,1284.34,373.45,1284.3,378.54z"/><path fill="#fff" d="M1173.69,495.79c-9.12,7.09-17.51,1.5-19.42,0.03c-0.27-0.21-0.43-0.52-0.44-0.86     c-0.28-5.52,3.03-8.55,4.56-9.64c0.4-0.29,0.94-0.28,1.34,0.02c1.37,1.02,4.93,3.03,8.87,0.09c0.41-0.31,0.98-0.3,1.39,0.02     c1.54,1.24,4.87,4.56,4.09,9.7C1174.03,495.4,1173.89,495.63,1173.69,495.79z"/><path fill="#fff" d="M1169.73,479.13c-0.02,3.11-2.56,5.62-5.67,5.6s-5.62-2.56-5.6-5.67c0.02-3.11,2.56-5.62,5.67-5.6     C1167.25,473.47,1169.75,476.01,1169.73,479.13z"/><path fill="#158db7" d="M431.66,357.71c-7.44,5.79-14.29,1.22-15.85,0.02c-0.22-0.17-0.35-0.43-0.36-0.7     c-0.23-4.51,2.48-6.98,3.72-7.87c0.33-0.23,0.77-0.23,1.09,0.01c1.12,0.83,4.02,2.47,7.24,0.08c0.34-0.25,0.8-0.24,1.13,0.02     c1.26,1.01,3.97,3.72,3.34,7.92C431.94,357.4,431.83,357.59,431.66,357.71z"/><path fill="#158db7" d="M428.43,344.11c-0.02,2.54-2.09,4.59-4.63,4.57c-2.54-0.02-4.59-2.09-4.57-4.63     c0.02-2.54,2.09-4.59,4.63-4.57C426.4,339.5,428.45,341.57,428.43,344.11z"/><rect width="4.75" height="67.45" x="1217.62" y="443.37" fill="#fff" transform="rotate(-89.61 1219.997 477.07)"/><rect width="4.75" height="67.45" x="1217.56" y="453.03" fill="#fff" transform="rotate(-89.61 1219.932 486.732)"/><rect width="4.75" height="67.45" x="1217.49" y="462.69" fill="#fff" transform="rotate(-89.61 1219.866 496.394)"/><rect width="4.75" height="160.28" x="1170.85" y="467.24" fill="#fff" transform="rotate(-89.61 1173.224 547.358)"/><rect width="4.75" height="160.28" x="1170.79" y="476.9" fill="#fff" transform="rotate(-89.61 1173.158 557.02)"/><rect width="4.75" height="160.28" x="1170.72" y="486.56" fill="#fff" transform="rotate(-89.61 1173.092 566.682)"/><rect width="4.95" height="159.65" x="1171.05" y="352.29" fill="#c8dbfb" transform="rotate(-89.61 1173.525 432.092)"/><rect width="4.95" height="134.16" x="1158.24" y="375.01" fill="#c8dbfb" transform="rotate(-89.61 1160.711 442.07)"/><rect width="4.95" height="110.73" x="1146.46" y="396.71" fill="#c8dbfb" transform="rotate(-89.61 1148.933 452.056)"/><path fill="#363334" d="M1182.07,381.32c0,4.25-3.45,7.7-7.7,7.7c-4.25,0-7.7-3.45-7.7-7.7c0-4.25,3.45-7.7,7.7-7.7    C1178.62,373.62,1182.07,377.07,1182.07,381.32z"/><circle cx="1174.29" cy="381.36" r="6.66" fill="#414747"/><path fill="#393e3e" d="M1177.57,381.31c0,1.83-1.48,3.31-3.31,3.31s-3.31-1.48-3.31-3.31c0-1.83,1.48-3.31,3.31-3.31    S1177.57,379.48,1177.57,381.31z"/><path fill="#25302f" d="M1176.65,381.35c0,1.34-1.09,2.43-2.43,2.43s-2.43-1.09-2.43-2.43c0-1.34,1.09-2.43,2.43-2.43    S1176.65,380.01,1176.65,381.35z"/><path fill="#354a3e" d="M1175.74,380.72c0,0.51-0.41,0.92-0.92,0.92c-0.51,0-0.92-0.41-0.92-0.92s0.41-0.92,0.92-0.92    C1175.33,379.8,1175.74,380.21,1175.74,380.72z"/><path fill="#344040" d="M1174.08,382.55c0,0.27-0.22,0.49-0.49,0.49c-0.27,0-0.49-0.22-0.49-0.49c0-0.27,0.22-0.49,0.49-0.49    C1173.86,382.07,1174.08,382.28,1174.08,382.55z"/><rect width="70.32" height="5.28" x="1092.64" y="606.67" fill="#c8dbfb"/><rect width="109.2" height="5.28" x="1092.64" y="617.1" fill="#c8dbfb"/><rect width="97.67" height="5.28" x="1092.64" y="627.41" fill="#c8dbfb"/><rect width="84.58" height="5.28" x="1092.64" y="637.63" fill="#c8dbfb"/><rect width="103.53" height="5.28" x="1092.64" y="647.2" fill="#c8dbfb"/><circle cx="1231.67" cy="630.23" r="21.97" fill="#c8dbfb"/><path fill="#fff" d="M1264.07,762.29l-185.75-3.68c-0.28,0-0.44-0.36-0.24-0.57V758l79.76-76.24c0.12-0.12,0.36-0.12,0.49,0    l33.11,31.57l0.24,0.24l0.2-0.2h0.04l10.23-9.26h0.04c0.12-0.12,0.28-0.12,0.4,0l61.73,57.56    C1264.55,761.88,1264.39,762.29,1264.07,762.29z"/><path fill="#fff" d="M1264.07,762.29l-185.75-3.68c-0.28,0-0.44-0.36-0.24-0.57V758l79.76-76.24c0.12-0.12,0.36-0.12,0.49,0    l33.11,31.57l0.24,0.24l0.2-0.2h0.04l10.23-9.26h0.04c0.12-0.12,0.28-0.12,0.4,0l61.73,57.56    C1264.55,761.88,1264.39,762.29,1264.07,762.29z"/><ellipse cx="758.17" cy="1244.71" fill="#e8e8e8" rx="392.79" ry="62.11"/><path fill="#bae1f1" d="M641.22,1003.97l-0.86,9.99l-128.14-20.78c7.32-4.02,14.36-10.31,19.65-20.02   c19.19,12.53,50.06,21.08,99.14,19.72C637.07,992.72,641.88,997.96,641.22,1003.97z"/><path fill="#0d3341" d="M808.19,977.96l-39.34,229.42c-9.71,5.94-24.23,5.11-34.99,3.75c-1.28-35.62,6.72-219.11,1.11-231.26   c-4.43-9.61-38.41-20.35-53.96-24.83c-1.53-0.45-2.54,1.59-1.23,2.54c7.5,5.51,23.7,12.1,33.03,25.18   c11.97,16.78-36.1,182.41-48.2,223.16c-0.8-0.6-1.33-0.98-1.36-0.98c-9.58,9.18-27.27,8.07-39.52,6.46l16.65-197.45l0.86-9.99   c0.65-6.01-4.15-11.24-10.21-11.09c-49.08,1.36-79.95-7.19-99.14-19.72c9.16-16.78,13.11-43.8,4.23-87.12c0,0-0.35-0.86-0.96-2.49   h151.51l-2.77,22.14l21.21,3.87C821.67,925.94,808.19,977.96,808.19,977.96z"/><path fill="none" stroke="#d40063" stroke-miterlimit="10" d="M531.87,973.15c-33.48-21.79-31.55-55.62-28.85-70.11c1.06-5.76,1.69-11.6,1.69-17.48v-2.01v-33.46"/><polyline fill="none" stroke="#ff7f83" stroke-miterlimit="10" points="647.76 838.82 645.93 816.91 645.93 816.86"/><path fill="#a6c1e8" d="M602.58,640.26l-6.16,168.17l-66.66-6.79c0,0-0.03-0.73-0.1-2.09c-0.03-0.53-0.05-1.16-0.1-1.91   c-0.03-0.35-0.05-0.75-0.08-1.18c-0.1-1.66-0.25-3.67-0.45-6.01c-0.03-0.58-0.08-1.18-0.15-1.81c-0.03-0.33-0.05-0.63-0.08-0.96   c-0.08-0.85-0.15-1.74-0.25-2.67c-0.58-5.89-1.41-13.08-2.62-21.08c-0.13-0.86-0.25-1.69-0.4-2.54c-0.1-0.68-0.2-1.33-0.33-2.01   c-0.15-0.96-0.3-1.94-0.48-2.92c-1.33-7.87-3.04-16.28-5.21-24.85c-0.28-1.06-0.55-2.14-0.83-3.22c-0.53-2.06-1.08-4.1-1.69-6.16   c-0.2-0.68-0.4-1.38-0.6-2.09c-0.65-2.24-1.36-4.45-2.09-6.64c-0.3-0.96-0.63-1.94-0.96-2.89c-2.64-7.72-5.71-15.3-9.26-22.44   c-0.33-0.7-0.68-1.41-1.03-2.09c-3.75-7.27-8.02-14.06-12.88-20.02c-0.53-0.68-1.08-1.33-1.64-1.99c-0.08-0.1-0.15-0.18-0.23-0.25   c-0.58-0.68-1.18-1.33-1.79-1.99c-0.5-0.55-1.01-1.11-1.53-1.64c-0.1-0.1-0.18-0.2-0.28-0.28c-0.53-0.53-1.08-1.06-1.61-1.58   c-1.18-1.13-2.36-2.21-3.6-3.22c-0.4-0.35-0.83-0.68-1.23-1.03c-0.43-0.33-0.83-0.65-1.26-0.96c-0.23-0.18-0.43-0.35-0.65-0.5   c-0.63-0.48-1.28-0.93-1.91-1.36c-0.88-0.6-1.79-1.21-2.69-1.76c0.1-0.68,0.18-1.03,0.18-1.03l9.11-5.18l62.19-35.29l1.23-2.72   c2.39,1.76,4.93,3.8,7.52,6.01c3.12,2.69,6.31,5.61,9.43,8.6c12.5,11.9,24.55,21.36,24.55,21.36l7.04-15.9   C594.79,630.23,597.73,635.56,602.58,640.26z"/><path fill="#52a7de" d="M550.01,592.97l-5.53,12.3l-1.23,2.72l-62.19,35.29c-9.33-26.46-23.9-48.12-36.33-49.63L550.01,592.97z"/><path fill="#98b5d8" d="M694.53,816.93c-0.45,10.89-1.13,21.76-2.34,32.53c-0.53-0.18-1.06-0.38-1.56-0.55v2.84l-34.79-0.3   l-60.98-0.55l-71.8-0.63l-18.36-0.18l-29.86-0.28c-21.81-87.22-5.06-189.02-3.07-200.32c0.7,0.43,1.38,0.86,2.06,1.33   c0.86,0.55,1.71,1.16,2.54,1.79c0.23,0.15,0.43,0.33,0.65,0.5c0.53,0.38,1.03,0.78,1.56,1.21c0.3,0.25,0.63,0.5,0.93,0.78   c1.23,1.01,2.42,2.09,3.6,3.22c0.5,0.5,1.06,1.03,1.56,1.53c0.63,0.63,1.26,1.28,1.86,1.96c0.6,0.65,1.21,1.31,1.79,1.99   c0.13,0.15,0.25,0.3,0.38,0.45c0.5,0.58,1.01,1.18,1.48,1.79c2.44,2.99,4.73,6.16,6.84,9.53c0.55,0.83,1.08,1.69,1.58,2.54   c1.66,2.69,3.2,5.51,4.68,8.4c0.28,0.53,0.55,1.08,0.8,1.64c0.83,1.69,1.66,3.4,2.44,5.13c0.05,0.1,0.1,0.2,0.13,0.3   c0.83,1.84,1.63,3.7,2.39,5.56c0.75,1.81,1.48,3.65,2.16,5.48c0.15,0.38,0.28,0.75,0.43,1.16c0.58,1.58,1.16,3.19,1.71,4.8   c0.33,0.96,0.65,1.94,0.96,2.89c0.23,0.63,0.43,1.28,0.63,1.94c0.35,1.08,0.68,2.16,1.01,3.25c0.2,0.65,0.4,1.31,0.6,1.99   c0.15,0.53,0.3,1.06,0.45,1.56c1.94,6.74,3.6,13.46,4.98,19.97c0.38,1.76,0.73,3.47,1.06,5.21c0.98,4.83,1.79,9.51,2.49,13.99   c0.15,0.86,0.28,1.69,0.4,2.54c0.15,1.01,0.3,1.99,0.43,2.97c0.35,2.31,0.65,4.53,0.91,6.67c0.15,1.18,0.3,2.34,0.43,3.47   c0.7,5.94,1.18,11.07,1.48,15.09c0.08,1.08,0.15,2.09,0.23,3.02c0.28,4.13,0.35,6.49,0.35,6.49l66.66,6.79l51.34,5.23l1.84,0.18   l41.03,4.18v3.27C691.91,819.8,693.2,818.37,694.53,816.93z"/><path fill="#a6c1e8" d="M697.07,662.55c-0.15,9.76-0.13,19.5-0.18,29.26c-0.13,20.1-0.23,40.2-0.58,60.27   c-0.15,9.63-0.35,19.24-0.65,28.85c-0.35,11.9-0.6,23.95-1.13,36c-1.33,1.43-2.62,2.87-3.9,4.35v-3.27l-41.03-4.18l-1.33-7.97   l-0.3-1.81l-0.4-2.52c-0.1-0.63-0.2-1.23-0.3-1.81l-0.88-5.28c-0.13-0.73-0.23-1.31-0.3-1.79c-0.08-0.45-0.13-0.78-0.15-0.91v-0.05   l-25.36-152.6c3.67-4.63,5.86-9.51,7.12-14.06c6.04,5.66,12.43,12.85,12.43,12.85c0.05-1.16,0.08-2.31,0.1-3.45   c0.08-4-0.03-7.97-0.23-11.95c-0.15-2.84-0.33-5.74-0.63-8.58c-0.28-2.69-0.55-5.48-1.74-7.95c0-0.03-0.03-0.05-0.03-0.08   c-0.05-0.1-0.15-0.4-0.25-0.68c-0.05-0.1-0.1-0.23-0.15-0.3c-0.05-0.15-0.1-0.25-0.15-0.28c6.69,2.74,12.1,7.62,18.04,11.65   c8.43,5.69,18.09,8.58,27.07,13.16c4.86,2.49,9.86,5.31,12.23,10.49c0.05,0.1,0.1,0.2,0.13,0.3   C697.6,647.28,697.17,655.03,697.07,662.55z"/><path fill="#0d3341" d="M690.63,851.75l-3.97,31.8H535.14c-1.94-4.98-6.52-17.13-12.07-33.28l71.8,0.63l60.98,0.55L690.63,851.75z"/><path fill="none" stroke="#d40063" stroke-miterlimit="10" d="M733.85,1211.13c0.05,1.11,0.1,2.06,0.15,2.87h33.71l1.13-6.62"/><path fill="none" stroke="#d40063" stroke-miterlimit="10" d="M623.72,1211.41l-0.3,3.55h38.49c0,0,0.98-3.27,2.69-9.03"/><line x1="535.14" x2="504.7" y1="883.55" y2="883.55" fill="none" stroke="#d40063" stroke-miterlimit="10"/><path fill="#3e2215" d="M828.28,1234.25c-7.24,12.18-24.85,8.58-36.45,7.4c-17.96-1.84-36.27-2.04-54.09-5.21   c-12.4-2.19-7.87-15.87-6.31-24.55c0.13-0.58,0.7-0.96,1.28-0.88c0.38,0.05,0.75,0.1,1.13,0.13c10.77,1.36,25.28,2.19,34.99-3.75   c1.33-0.81,2.57-1.74,3.67-2.82c0.18,0,14.97,11.37,16.58,12.48c7.17,4.8,14.74,9.11,23.04,11.6   C813.82,1229.14,830,1231.38,828.28,1234.25z"/><path fill="#3e2215" d="M719.01,1234.63c-7.25,12.15-24.85,8.58-36.45,7.4c-17.96-1.84-36.27-2.06-54.09-5.21   c-12.4-2.19-7.9-15.87-6.31-24.55c0.13-0.58,0.7-0.96,1.28-0.88c0.1,0,0.18,0.03,0.28,0.03c12.25,1.61,29.94,2.72,39.52-6.46   c0.03,0,0.55,0.38,1.36,0.98c3.72,2.77,13.91,10.59,15.22,11.5c7.14,4.8,14.74,9.11,23.04,11.6   C704.54,1229.52,720.72,1231.73,719.01,1234.63z"/><path fill="#98b5d8" d="M892.76,800.43l-9.28,32.88l-79.24-4.93c-7.65-0.48-15.09-2.09-22.14-4.73c1.58-0.48,2.67-1.26,2.97-2.49   c1.38-5.58-13.84-8.96-17.03-9.86c-3.45-0.98-6.89-1.84-10.36-2.62c-0.13-0.1-0.25-0.2-0.38-0.33l-8.93-8.23   c5.08-0.78,11.07-0.8,12.45-0.91c7.12-0.55,14.14-2.21,20.7-4.96c1.03-0.4,2.09-0.88,2.79-1.71c5.23-6.04-16.73-7.32-19.57-7.52   c-7.32-0.48-14.72,0-21.91,1.53c-2.41,0.5-4.78,1.16-7.09,1.91l-39.37-36.27c0,0-0.03-0.05-0.05-0.13   c0.35-20.07,0.45-40.17,0.58-60.27c0.05-9.76,0.03-19.5,0.18-29.26c0.1-7.52,0.53-15.27-2.57-22.31l92.45,128.85   c1.71,2.42,4.23,4.15,7.07,4.91L892.76,800.43z"/><path fill="#fcb483" d="M785.07,821.16c-0.3,1.23-1.38,2.01-2.97,2.49h-0.03c-7.32,2.11-25.71-2.72-34.34-5.21   c-0.53-0.15-0.83,0.58-0.35,0.83c11.32,6.04,40.65,22.44,31.65,25.96c-10.06,3.95-21.41-7.04-29.58-11.29   c-5.61-2.89-2.99,2.59-1.08,4.88c1.86,2.26,6.21,5.21,5.08,8.5c-0.45,1.33-1.81,2.16-3.22,2.39c-4.2,0.65-8.8-1.26-11.8-4.18   c-3.14-3.04-5.48-3.92-8.91-0.43c-5.11,5.23-14.04,5.66-21.03,5.99c-5.28,0.25-11.09,0-16.3-1.64c1.21-10.77,1.89-21.63,2.34-32.53   c11.55-12.45,25.06-23.22,41.21-28.45c2.31-0.75,4.68-1.41,7.09-1.91c7.19-1.53,14.59-2.01,21.91-1.53   c2.84,0.2,24.8,1.48,19.57,7.52c-0.7,0.83-1.76,1.31-2.79,1.71c-6.57,2.74-13.58,4.4-20.7,4.96c-1.38,0.1-7.37,0.13-12.45,0.91   c-4.5,0.68-8.3,1.94-7.65,4.38c0.58,2.11,10.26,2.77,12.25,3.17c1.56,0.33,3.14,0.65,4.7,1.01c3.47,0.78,6.92,1.63,10.36,2.62   C771.23,812.21,786.45,815.58,785.07,821.16z"/><path fill="#5f3400" d="M658.05,444.42c-0.43-2.62-0.75-4.15-0.75-4.15c-17.11,9.61-88.02-5.71-88.02-5.71   c-13.01,5.33-14.64,42.64-14.72,43.85c-0.03-0.13-0.08-0.23-0.1-0.33c-2.14-6.67-11.17-7.6-14.79-1.61   c-0.38,0.6-0.68,1.21-0.96,1.81c-6.67-10.97-29.46-53.71,7.3-73.08c0,0,6.09-47.09,70.29-20.05c0,0,30.84,12.38,60.37-2.01   C676.67,383.14,680.17,422.99,658.05,444.42z"/><path fill="#fcb483" d="M654.73,489.45c-0.63,0.83-0.96,1.81-0.83,2.84c0.75,6.41,2.72,31.52-9.23,52.8   c-6.19,11.07-11.95,21.26-19.6,26.62c-9.41,6.59-21.63,5.89-41.08-9.51c-8.98-7.09-15.75-12.3-20.83-16.13   c-5.13-3.87-8.6-6.31-10.87-7.85c-0.05-0.03-0.08-0.05-0.13-0.08v-26.11c0,0-20.68-18.01-13.46-33.76c0.28-0.6,0.58-1.21,0.96-1.81   c3.62-5.99,12.65-5.06,14.79,1.61c0.03,0.1,0.08,0.2,0.1,0.33c0.08-1.21,1.71-38.51,14.72-43.85c0,0,70.91,15.32,88.02,5.71   c0,0,0.33,1.53,0.75,4.15C659.71,454.13,662.78,478.46,654.73,489.45z"/><path fill="#0d3341" d="M649.6,813.84l-1.84-0.18l-51.34-5.23l6.16-168.17c-4.86-4.7-7.8-10.04-9.56-14.92l2.24-5.46h24.65   c0.35-0.1,0.7-0.25,1.08-0.38c0.18,0.1,0.38,0.23,0.58,0.38c1.79,1.23,3.92,3.09,6.11,5.16c-1.26,4.55-3.45,9.43-7.12,14.06   l25.36,152.6v0.05l0.15,0.91l0.3,1.79l0.88,5.28l0.3,1.81l0.4,2.52l0.3,1.81L649.6,813.84z"/><path fill="#f2966b" d="M625.07,571.71v36.9c-4.93-1.26-14.39-3.9-18.54-5.43c-1.13-0.43-2.21-0.86-3.3-1.28   c-1.91-0.75-3.72-1.56-5.43-2.39c-0.58-0.25-1.13-0.53-1.69-0.8c-1.43-0.7-2.79-1.43-4.08-2.16c-0.5-0.28-0.98-0.55-1.43-0.83   c-0.38-0.2-0.73-0.43-1.08-0.65c-0.68-0.4-1.33-0.83-1.99-1.26c-1.66-1.06-3.22-2.16-4.65-3.3c-0.63-0.48-1.23-0.96-1.81-1.46   c-0.78-0.65-1.53-1.31-2.24-1.96c-0.73-0.65-1.41-1.33-2.06-1.99l-0.08-0.08c-1.28-1.31-2.44-2.62-3.52-3.92   c-2.84-3.55-4.96-7.09-6.49-10.54c-0.23-0.48-0.43-0.98-0.63-1.46c-0.4-0.98-0.75-1.94-1.06-2.87c-0.15-0.45-0.28-0.88-0.4-1.33   c-0.2-0.68-0.4-1.36-0.55-2.01c-0.13-0.43-0.2-0.86-0.3-1.26c-0.05-0.23-0.1-0.48-0.15-0.7c-0.08-0.35-0.13-0.7-0.2-1.06   c-0.05-0.2-0.08-0.43-0.1-0.63c-0.08-0.45-0.15-0.91-0.2-1.33c-0.05-0.45-0.1-0.91-0.15-1.33c-0.45-4.63-0.1-8.33,0.23-10.49   c5.08,3.82,11.85,9.03,20.83,16.13C603.44,577.6,615.67,578.3,625.07,571.71z"/><path fill="#0d3341" d="M637.4,609.32v0.03c-0.03,0.13-0.08,0.2-0.15,0.3c-0.18,0.33-0.38,0.63-0.63,0.93      c-1.41,1.61-3.4,3.07-5.58,4.33v0.03c-0.6,0.35-1.23,0.7-1.86,1.03c-1.36,0.7-2.74,1.36-4.1,1.94v-25.13l4.48,4.33v0.03      l6.69,6.49c0,0,0,0.03,0.03,0.05c0.3,0.3,0.55,0.6,0.75,0.96l0.03,0.02c0.05,0.1,0.1,0.18,0.15,0.28c0.05,0.08,0.1,0.2,0.15,0.3      c0.1,0.23,0.2,0.45,0.25,0.68c0,0.03,0.03,0.05,0.03,0.08C637.93,607.08,637.88,608.27,637.4,609.32z"/><path fill="#0d3341" d="M640.22,634.45c-0.03,1.13-0.05,2.29-0.1,3.45c0,0-6.39-7.19-12.43-12.85c-2.19-2.06-4.33-3.92-6.11-5.16      c-0.2-0.15-0.4-0.28-0.58-0.38c1.26-0.45,2.64-1.01,4.08-1.61c1.36-0.58,2.74-1.23,4.1-1.94c0.63-0.33,1.26-0.68,1.86-1.03      v-0.03c2.19-1.26,4.18-2.72,5.58-4.33c0.25-0.3,0.45-0.6,0.63-0.93c0.08-0.1,0.13-0.18,0.15-0.3v-0.03      c0.48-1.06,0.53-2.24,0.23-3.35c1.18,2.47,1.46,5.26,1.74,7.95c0.3,2.84,0.48,5.74,0.63,8.58      C640.19,626.48,640.29,630.45,640.22,634.45z"/><path fill="#0d3341" d="M595.26,619.89l-2.24,5.46l-7.04,15.9c0,0-12.05-9.46-24.55-21.36c-3.12-2.99-6.31-5.91-9.43-8.6      c-2.59-2.21-5.13-4.25-7.52-6.01l5.53-12.3l1.91-4.13l0.03-0.08l0.05,0.03L595.26,619.89z"/><path fill="#fcb483" d="M625.07,608.62v9.28c-1.43,0.6-2.82,1.16-4.08,1.61c-0.38,0.13-0.73,0.28-1.08,0.38h-24.65L552,588.79   l-0.05-0.03l0.35-50.54c2.26,1.53,5.74,3.97,10.87,7.85c-0.33,2.16-0.68,5.86-0.23,10.49c0.05,0.43,0.1,0.88,0.15,1.33   c0.05,0.43,0.13,0.88,0.2,1.33c0.03,0.2,0.05,0.43,0.1,0.63c0.08,0.35,0.13,0.7,0.2,1.06c0.05,0.23,0.1,0.48,0.15,0.7   c0.1,0.4,0.18,0.83,0.3,1.26c0.15,0.65,0.35,1.33,0.55,2.01c0.13,0.45,0.25,0.88,0.4,1.33c0.3,0.93,0.65,1.89,1.06,2.87   c0.2,0.48,0.4,0.98,0.63,1.46c1.53,3.45,3.65,6.99,6.49,10.54c1.08,1.31,2.24,2.62,3.52,3.92l0.08,0.08   c0.65,0.65,1.33,1.33,2.06,1.99c0.7,0.65,1.46,1.31,2.24,1.96c0.58,0.5,1.18,0.98,1.81,1.46c1.43,1.13,2.99,2.24,4.65,3.3   c0.65,0.43,1.31,0.86,1.99,1.26c0.35,0.23,0.7,0.45,1.08,0.65c0.45,0.28,0.93,0.55,1.43,0.83c1.28,0.73,2.64,1.46,4.08,2.16   c0.55,0.28,1.11,0.55,1.69,0.8c1.71,0.83,3.52,1.64,5.43,2.39c1.08,0.43,2.16,0.85,3.3,1.28   C610.69,604.72,620.14,607.36,625.07,608.62z"/><path fill="#8e9293" d="M1117.6,711.66l-33.48,139.36c-0.68,2.82-3.19,4.78-6.09,4.75l-201.55-1.61l34.61-139.94   c0.68-2.77,3.17-4.73,6.01-4.7l198.83,0.03c0.23,0,0.48,0.05,0.68,0.13C1117.35,710,1117.83,710.8,1117.6,711.66z"/><path fill="#49494b" d="M1116.62,709.67c-0.2-0.08-0.45-0.13-0.68-0.13l-198.83-0.03c-2.84-0.03-5.33,1.94-6.01,4.7l-34.61,139.94   l-126.21-1.46l0.05-3.22c0.03-2.36,1.86-4.3,4.2-4.48l106.11-7.95c3.09-0.23,5.69-2.42,6.41-5.41l31.14-124.75   c0.78-3.09,3.57-5.26,6.77-5.21c0,0,199.99,2.84,200.22,2.84c0.86,0,1.64,0.58,2.39,0.96   C1110.54,706.93,1113.58,708.34,1116.62,709.67z"/><path fill="none" stroke="#ff7f83" stroke-miterlimit="10" d="M1116.9,533.7c-0.1-0.05-0.18-0.08-0.28-0.13"/><path fill="#158db7" d="M531.87,973.15c-5.28,9.71-12.33,16-19.65,20.02c-5.94,3.3-12.07,5.08-17.58,6.01   c-13.33,2.24-26.51-5.43-32.22-18.59c-17.06-39.24-25.84-121.15-28.88-144.9c-3.72-29.13-25.31-138.51-8.1-216.34   c3.75-16.98,9.61-24.65,16.3-25.68c0.98-0.15,1.96-0.15,2.97-0.03h0.03c12.43,1.51,26.99,23.17,36.33,49.63   c2.14,5.99,4,12.23,5.48,18.54c3.12,12.98,4.7,26.24,4.08,38.21c-2.19,41.23,18.26,108.88,32.45,150.23   c5.56,16.15,10.14,28.3,12.07,33.28c0.6,1.63,0.96,2.49,0.96,2.49C544.98,929.36,541.03,956.37,531.87,973.15z"/><polygon fill="#a85a56" points="634.63 895.5 632.77 1063.88 632.74 1064.49 629.73 1335.25 357.12 1332.21 362 892.46"/><polygon fill="#a85a56" points="1154.6 901.29 1149.69 1340.44 1100.35 1339.88 1103.36 1069.72 1105.25 900.73"/><path fill="#9b4e4c" d="M1201.87,865.26l-0.31,27.43c-0.06,5.03-4.17,9.06-9.21,9l-835.43-9.31c-5.03-0.06-9.06-4.17-9-9.21   l0.31-27.43c0.06-5.03,4.17-9.06,9.21-9l835.43,9.31C1197.9,856.11,1201.93,860.23,1201.87,865.26z"/><polygon fill="#ac5e4e" points="1093.96 911.71 1093.4 912.32 1091.78 1057.26 643.99 1052.28 645.6 907.33 645.06 906.71"/><polygon fill="#9b4e4c" points="1105.25 900.73 1103.36 1069.73 1091.78 1057.28 1093.4 912.32 1093.96 911.71 1104.07 900.72"/><line x1="1091.81" x2="1091.78" y1="1057.26" y2="1057.26" fill="none" stroke="#0023d4" stroke-miterlimit="10"/><polygon fill="#9b4e4c" points="1103.36 1069.72 1091.02 1069.58 645.71 1064.63 632.74 1064.49 632.77 1063.88 643.98 1052.27 1091.77 1057.27"/><polygon fill="#9b4e4c" points="1104.07 900.72 1093.96 911.71 645.06 906.71 635.19 895.49"/><polygon fill="#9b4e4c" points="645.6 907.33 643.99 1052.28 632.76 1063.87 634.63 895.49 635.19 895.49 645.06 906.71"/><polygon fill="#9b4e4c" points="645.71 1064.63 643.47 1265.7 629.73 1335.25 632.74 1064.49"/><polygon fill="#9b4e4c" points="1103.36 1069.72 1100.35 1339.88 1088.78 1270.67 1091.02 1069.58"/><circle cx="1005.98" cy="784.43" r="20.22" fill="#fff"/><line x1="206.48" x2="206.24" y1="548.43" y2="548.43" fill="none" stroke="#198dce" stroke-miterlimit="10"/><path fill="#c8dbfb" d="M369.82,753.02l11.9-1.07l-1.57-17.65l-11.36,1.01c-1.39-5.28-3.78-10.35-7.15-14.87l7.27-8.69l-13.6-11.37      l-6.89,8.23c-5.03-2.95-10.47-4.78-16.04-5.55l-0.95-10.67l-17.66,1.56l0.92,10.25c-5.51,1.5-10.77,4.07-15.42,7.72l-8.03-6.73      l-11.38,13.6l7.9,6.61c-2.85,5.14-4.57,10.69-5.2,16.32l-10.7,0.95l1.57,17.66l10.72-0.96c1.6,5.31,4.2,10.33,7.8,14.81      l-7.28,8.7l13.59,11.37l7.34-8.76c4.9,2.63,10.16,4.24,15.5,4.86l1.06,11.9l17.65-1.57l-1.05-11.83      c5.07-1.48,9.92-3.91,14.26-7.22l9.34,7.81l11.38-13.59l-9.09-7.61C367.34,763.45,369.05,758.28,369.82,753.02z M344.97,762.54      c-8.41,10.04-23.37,11.38-33.42,2.97c-10.04-8.41-11.37-23.37-2.96-33.42c8.41-10.04,23.36-11.37,33.41-2.96      C352.04,737.54,353.38,752.49,344.97,762.54z"/><path fill="#c8dbfb" d="M1302.02,856.54l0.75-10.06l-6.29,1.61c-0.28-2.94-1.13-5.64-2.56-7.95l4.76-5.68l-6.39-5.35l-4.51,5.39      c-2.48-1.24-5.3-1.81-8.26-1.75l0.45-6.09l-9.78,2.5l-0.43,5.85c-3.15,1.37-6.25,3.35-9.11,5.86l-3.78-3.16l-7.45,8.9l3.71,3.11      c-2.02,3.23-3.46,6.6-4.32,9.91l-5.92,1.51l-0.75,10.09l5.94-1.54c0.4,2.92,1.36,5.6,2.91,7.87l-4.76,5.68l6.39,5.35l4.79-5.73      c2.44,1.07,5.17,1.53,8.03,1.4l-0.5,6.79l9.78-2.51l0.51-6.74c2.9-1.33,5.77-3.16,8.43-5.47l4.39,3.68l7.45-8.9l-4.27-3.57      c1.91-3.03,3.32-6.18,4.23-9.29L1302.02,856.54z M1281,865.99c-5.5,6.58-13.79,8.7-18.51,4.76c-4.72-3.96-4.1-12.48,1.41-19.06      c5.5-6.58,13.79-8.7,18.51-4.76C1287.13,850.89,1286.51,859.43,1281,865.99z"/><path fill="#097eb2" d="M1045.51,324.3v14.04l-312.25-2.52V324.3c0-6.56,5.32-11.86,11.86-11.86h288.52    C1040.19,312.43,1045.51,317.74,1045.51,324.3z"/><path fill="#a6c1e8" d="M1045.51,338v140.58c0,5.68-5.32,10.29-11.86,10.29H745.12c-6.54,0-11.86-4.61-11.86-10.29V335.82    L1045.51,338z"/><rect width="14.58" height="7.64" x="749.19" y="348.82" fill="#fff"/><rect width="36.02" height="7.64" x="769.08" y="348.82" fill="#fff"/><rect width="33.05" height="7.64" x="808.43" y="348.82" fill="#fff"/><rect width="33.05" height="7.64" x="849.25" y="348.82" fill="#fff"/><rect width="33.05" height="7.64" x="890.08" y="348.82" fill="#fff"/><rect width="33.05" height="7.64" x="930.91" y="348.82" fill="#fff"/><rect width="33.05" height="7.64" x="971.74" y="348.82" fill="#fff"/><rect width="79.17" height="7.64" x="749.19" y="388.51" fill="#fff"/><rect width="64.79" height="7.64" x="834.87" y="388.51" fill="#fff"/><rect width="62.67" height="7.64" x="903.2" y="388.51" fill="#fff"/><rect width="38.34" height="7.64" x="749.19" y="429.01" fill="#fff"/><rect width="30.73" height="7.64" x="792.56" y="429.01" fill="#fff"/><rect width="30.73" height="7.64" x="827.68" y="429.01" fill="#fff"/><rect width="30.73" height="7.64" x="862.79" y="429.01" fill="#fff"/><rect width="30.73" height="7.64" x="897.91" y="429.01" fill="#fff"/><rect width="30.73" height="7.64" x="933.03" y="429.01" fill="#fff"/><g><rect width="14.58" height="7.64" x="749.19" y="370.08" fill="#ff4e59"/><rect width="27.55" height="7.64" x="770.13" y="370.08" fill="#ff4e59"/><rect width="27.55" height="7.64" x="801.23" y="370.08" fill="#ff4e59"/><rect width="27.55" height="7.64" x="832.33" y="370.08" fill="#ff4e59"/><rect width="27.55" height="7.64" x="863.43" y="370.08" fill="#ff4e59"/><rect width="27.55" height="7.64" x="894.53" y="370.08" fill="#ff4e59"/><rect width="27.55" height="7.64" x="925.62" y="370.08" fill="#ff4e59"/><rect width="27.55" height="7.64" x="956.72" y="370.08" fill="#ff4e59"/><rect width="27.55" height="7.64" x="987.82" y="370.08" fill="#ff4e59"/></g><g><rect width="14.58" height="7.64" x="749.19" y="407.78" fill="#ff4e59"/><rect width="41.52" height="7.64" x="767.6" y="407.78" fill="#ff4e59"/><rect width="47.44" height="7.64" x="813.71" y="407.78" fill="#ff4e59"/><rect width="47.44" height="7.64" x="872.74" y="407.78" fill="#ff4e59"/></g><g><rect width="14.58" height="7.64" x="749.19" y="447.83" fill="#ff4e59"/><rect width="42.57" height="7.64" x="769.29" y="447.83" fill="#ff4e59"/><rect width="42.57" height="7.64" x="815.62" y="447.83" fill="#ff4e59"/><rect width="42.57" height="7.64" x="865.33" y="447.83" fill="#ff4e59"/><rect width="42.57" height="7.64" x="915.05" y="447.83" fill="#ff4e59"/><rect width="42.57" height="7.64" x="964.76" y="447.83" fill="#ff4e59"/></g><g><text fill="#a6c1e8" font-family="NimbusSanL-Bol" font-size="53.695" transform="translate(595.054 322.297)">&lt;/&gt;</text></g><g><circle cx="1263.73" cy="159.31" r="73.75" fill="#cfcfcf" transform="rotate(-45.001 1263.733 159.322)"/><path fill="#097eb2" d="M1289.48,156.01c0,1.27-1.04,2.27-2.27,2.27h-16.86c-1.04,5.42-5.83,9.45-11.44,9.45     c-6.5,0-11.72-5.26-11.72-11.72c0-5.62,4.03-10.38,9.45-11.44v-27.8c0-1.27,1-2.27,2.27-2.27s2.27,1.02,2.27,2.27v27.8     c4.6,0.89,8.24,4.53,9.17,9.19h16.86C1288.44,153.76,1289.44,154.76,1289.48,156.01z"/><path fill="#097eb2" d="M1301.87,96.17c-12.11-8.81-27.02-14-43.14-14c-40.62,0-73.54,32.94-73.54,73.54     c0,24.87,12.34,46.87,31.24,60.17c11.95,8.43,26.54,13.39,42.3,13.39c40.62,0,73.54-32.93,73.54-73.56     C1332.26,131.22,1320.28,109.52,1301.87,96.17z M1311.75,158.24h8.44c-0.33,9.39-2.71,18.25-7.1,26.46l-7.3-4.2     c-0.34-0.2-0.76-0.32-1.13-0.32c-0.81,0-1.56,0.43-1.96,1.12c-0.63,1.1-0.27,2.48,0.83,3.12l7.29,4.2     c-4.87,7.79-11.52,14.43-19.31,19.34l-4.24-7.33c-0.4-0.68-1.15-1.12-1.95-1.12c-0.42,0-0.78,0.11-1.14,0.32     c-1.08,0.62-1.46,2.01-0.83,3.11l4.24,7.3c-8.13,4.3-17.19,6.74-26.41,7.1v-8.49c0-1.22-1.01-2.27-2.28-2.27     c-1.27,0-2.28,1-2.28,2.27v8.49c-9.19-0.36-18.27-2.77-26.41-7.1l4.22-7.3c0.65-1.1,0.27-2.49-0.83-3.11     c-0.34-0.21-0.74-0.32-1.12-0.32c-0.81,0-1.55,0.43-1.96,1.12l-4.22,7.33c-7.77-4.91-14.42-11.56-19.29-19.34l7.29-4.2     c1.1-0.65,1.46-2.02,0.83-3.12c-0.4-0.68-1.15-1.12-1.97-1.12c-0.4,0-0.78,0.12-1.12,0.32l-7.29,4.2     c-4.33-8.17-6.74-17.02-7.08-26.41h8.44c1.23,0,2.28-1.01,2.28-2.28c0-1.24-1.01-2.27-2.28-2.27h-8.44     c0.34-9.23,2.76-18.3,7.08-26.41l7.29,4.2c0.34,0.21,0.76,0.33,1.12,0.33c0.82,0,1.57-0.43,1.97-1.12     c0.62-1.1,0.27-2.49-0.83-3.12l-7.29-4.2c4.91-7.79,11.56-14.43,19.34-19.34l4.2,7.29c0.4,0.7,1.15,1.14,1.95,1.14     c0.41,0,0.78-0.12,1.14-0.33c0.5-0.32,0.88-0.81,1.06-1.37c0.13-0.59,0.07-1.22-0.22-1.73l-4.25-7.33     c8.13-4.29,17.2-6.75,26.42-7.09v8.46c0,1.23,1.01,2.27,2.28,2.27s2.27-1,2.27-2.27v-8.46c9.21,0.34,18.27,2.77,26.42,7.09     l-4.23,7.33c-0.32,0.5-0.38,1.12-0.22,1.73c0.13,0.56,0.55,1.06,1.06,1.37c0.34,0.21,0.76,0.33,1.12,0.33     c0.82,0,1.56-0.43,1.97-1.14l4.2-7.32c7.79,4.89,14.43,11.56,19.34,19.34l-7.29,4.2c-1.1,0.62-1.48,2.01-0.83,3.11     c0.4,0.69,1.15,1.12,1.95,1.12c0.4,0,0.77-0.12,1.12-0.31l7.29-4.2c4.33,8.08,6.74,17.16,7.1,26.37h-8.44     c-1.26,0-2.28,1.01-2.28,2.28C1309.48,157.22,1310.49,158.24,1311.75,158.24z"/><path fill="#097eb2" d="M1289.48,156.01c0,1.27-1.04,2.27-2.27,2.27h-16.86c-1.04,5.42-5.83,9.45-11.44,9.45     c-6.5,0-11.72-5.26-11.72-11.72c0-5.62,4.03-10.38,9.45-11.44v-27.8c0-1.27,1-2.27,2.27-2.27s2.27,1.02,2.27,2.27v27.8     c4.6,0.89,8.24,4.53,9.17,9.19h16.86C1288.44,153.76,1289.44,154.76,1289.48,156.01z"/><path fill="#097eb2" d="M1316.22,123.57l-0.09-0.2c-0.01-0.06-0.06-0.08-0.09-0.12c-0.02-0.06-0.02-0.12-0.06-0.16     c-0.06-0.09-0.13-0.18-0.19-0.27l-0.04-0.02c-5.66-9.71-13.82-17.85-23.54-23.58c-0.07-0.05-0.13-0.07-0.22-0.13     c-0.06-0.04-0.06-0.09-0.12-0.11c-0.01-0.05-0.07,0-0.11-0.05c-0.06-0.01-0.15-0.07-0.21-0.11c-9.91-5.68-21.17-8.68-32.61-8.68     c-11.5,0-22.77,2.99-32.5,8.62c-0.07,0.01-0.19,0.11-0.28,0.16c-0.06,0.05-0.12,0.05-0.18,0.06c-0.05,0.04-0.09,0.09-0.14,0.15     c-0.06,0.06-0.12,0.06-0.2,0.12c-9.71,5.7-17.87,13.82-23.46,23.44l-0.13,0.18l-0.06,0.12c-0.04,0.04-0.06,0.09-0.09,0.11     c-0.02,0.06-0.02,0.15-0.06,0.21c-5.7,9.9-8.73,21.21-8.75,32.7c0,0.02,0,0.02,0,0.06c0,0.02,0,0.02,0,0.06     c0,11.5,3.02,22.78,8.68,32.52c0.01,0.06,0.06,0.09,0.06,0.12c0.01,0.09,0.01,0.19,0.07,0.26c0.06,0.09,0.12,0.15,0.18,0.23     c0.04,0.04,0.04,0.09,0.05,0.11l0.06,0.09c5.72,9.74,13.85,17.84,23.52,23.49c0.08,0.06,0.18,0.08,0.23,0.13     c0.01,0.05,0.05,0.06,0.07,0.09c0.04,0.05,0.06,0,0.09,0.05l0.04,0.01c9.92,5.77,21.29,8.8,32.81,8.8     c11.53,0,22.82-3.03,32.87-8.81c0.05,0,0.06,0,0.09-0.05c0.02-0.04,0.06-0.05,0.08-0.05l0.26-0.18     c9.69-5.68,17.8-13.76,23.49-23.45l0.02-0.07c0.04-0.06,0.06-0.07,0.09-0.13c0.06-0.09,0.13-0.15,0.19-0.27     c0.04-0.06,0.04-0.12,0.08-0.16c0.01-0.02,0.01-0.06,0.05-0.09l0.14-0.18v-0.12c5.58-9.78,8.56-20.96,8.56-32.34     c0-0.04,0-0.04,0-0.04v-0.02C1324.8,144.6,1321.83,133.41,1316.22,123.57z M1311.75,158.24h8.44c-0.33,9.39-2.71,18.25-7.1,26.46     l-7.3-4.2c-0.34-0.2-0.76-0.32-1.13-0.32c-0.81,0-1.56,0.43-1.96,1.12c-0.63,1.1-0.27,2.48,0.83,3.12l7.29,4.2     c-4.87,7.79-11.52,14.43-19.31,19.34l-4.24-7.33c-0.4-0.68-1.15-1.12-1.95-1.12c-0.42,0-0.78,0.11-1.14,0.32     c-1.08,0.62-1.46,2.01-0.83,3.11l4.24,7.3c-8.13,4.3-17.19,6.74-26.41,7.1v-8.49c0-1.22-1.01-2.27-2.28-2.27     c-1.27,0-2.28,1-2.28,2.27v8.49c-9.19-0.36-18.27-2.77-26.41-7.1l4.22-7.3c0.65-1.1,0.27-2.49-0.83-3.11     c-0.34-0.21-0.74-0.32-1.12-0.32c-0.81,0-1.55,0.43-1.96,1.12l-4.22,7.33c-7.77-4.91-14.42-11.56-19.29-19.34l7.29-4.2     c1.1-0.65,1.46-2.02,0.83-3.12c-0.4-0.68-1.15-1.12-1.97-1.12c-0.4,0-0.78,0.12-1.12,0.32l-7.29,4.2     c-4.33-8.17-6.74-17.02-7.08-26.41h8.44c1.23,0,2.28-1.01,2.28-2.28c0-1.24-1.01-2.27-2.28-2.27h-8.44     c0.34-9.23,2.76-18.3,7.08-26.41l7.29,4.2c0.34,0.21,0.76,0.33,1.12,0.33c0.82,0,1.57-0.43,1.97-1.12     c0.62-1.1,0.27-2.49-0.83-3.12l-7.29-4.2c4.91-7.79,11.56-14.43,19.34-19.34l4.2,7.29c0.4,0.7,1.15,1.14,1.95,1.14     c0.41,0,0.78-0.12,1.14-0.33c0.5-0.32,0.88-0.81,1.06-1.37c0.13-0.59,0.07-1.22-0.22-1.73l-4.25-7.33     c8.13-4.29,17.2-6.75,26.42-7.09v8.46c0,1.23,1.01,2.27,2.28,2.27s2.27-1,2.27-2.27v-8.46c9.21,0.34,18.27,2.77,26.42,7.09     l-4.23,7.33c-0.32,0.5-0.38,1.12-0.22,1.73c0.13,0.56,0.55,1.06,1.06,1.37c0.34,0.21,0.76,0.33,1.12,0.33     c0.82,0,1.56-0.43,1.97-1.14l4.2-7.32c7.79,4.89,14.43,11.56,19.34,19.34l-7.29,4.2c-1.1,0.62-1.48,2.01-0.83,3.11     c0.4,0.69,1.15,1.12,1.95,1.12c0.4,0,0.77-0.12,1.12-0.31l7.29-4.2c4.33,8.08,6.74,17.16,7.1,26.37h-8.44     c-1.26,0-2.28,1.01-2.28,2.28C1309.48,157.22,1310.49,158.24,1311.75,158.24z"/><path fill="#fff" d="M1309.48,155.98c0-1.27,1.02-2.28,2.28-2.28h8.44c-0.36-9.22-2.77-18.3-7.1-26.37l-7.29,4.2     c-0.34,0.19-0.72,0.31-1.12,0.31c-0.8,0-1.55-0.42-1.95-1.12c-0.65-1.1-0.27-2.49,0.83-3.11l7.29-4.2     c-4.91-7.79-11.56-14.46-19.34-19.34l-4.2,7.32c-0.41,0.7-1.15,1.14-1.97,1.14c-0.35,0-0.78-0.12-1.12-0.33     c-0.51-0.32-0.93-0.81-1.06-1.37c-0.15-0.61-0.09-1.22,0.22-1.73l4.23-7.33c-8.15-4.32-17.22-6.75-26.42-7.09v8.46     c0,1.27-1,2.27-2.27,2.27s-2.28-1.03-2.28-2.27v-8.46c-9.22,0.34-18.3,2.81-26.42,7.09l4.25,7.33c0.29,0.5,0.35,1.14,0.22,1.73     c-0.18,0.56-0.55,1.06-1.06,1.37c-0.36,0.21-0.73,0.33-1.14,0.33c-0.8,0-1.55-0.43-1.95-1.14l-4.2-7.29     c-7.79,4.91-14.43,11.56-19.34,19.34l7.29,4.2c1.1,0.63,1.46,2.02,0.83,3.12c-0.4,0.68-1.15,1.12-1.97,1.12     c-0.35,0-0.78-0.12-1.12-0.33l-7.29-4.2c-4.32,8.11-6.74,17.18-7.08,26.41h8.44c1.27,0,2.28,1.02,2.28,2.27     c0,1.27-1.05,2.28-2.28,2.28h-8.44c0.34,9.39,2.75,18.24,7.08,26.41l7.29-4.2c0.34-0.2,0.72-0.32,1.12-0.32     c0.82,0,1.57,0.43,1.97,1.12c0.62,1.1,0.27,2.48-0.83,3.12l-7.29,4.2c4.87,7.79,11.52,14.43,19.29,19.34l4.22-7.33     c0.41-0.68,1.15-1.12,1.96-1.12c0.38,0,0.78,0.11,1.12,0.32c1.1,0.62,1.48,2.01,0.83,3.11l-4.22,7.3     c8.14,4.33,17.22,6.74,26.41,7.1v-8.49c0-1.27,1.01-2.27,2.28-2.27c1.27,0,2.28,1.05,2.28,2.27v8.49     c9.22-0.36,18.28-2.81,26.41-7.1l-4.24-7.3c-0.62-1.1-0.25-2.49,0.83-3.11c0.36-0.21,0.72-0.32,1.14-0.32     c0.8,0,1.55,0.43,1.95,1.12l4.24,7.33c7.79-4.91,14.43-11.56,19.31-19.34l-7.29-4.2c-1.1-0.65-1.47-2.02-0.83-3.12     c0.4-0.68,1.15-1.12,1.96-1.12c0.36,0,0.79,0.12,1.13,0.32l7.3,4.2c4.39-8.21,6.78-17.06,7.1-26.46h-8.44     C1310.49,158.24,1309.48,157.22,1309.48,155.98z M1287.2,158.29h-16.85c-1.05,5.41-5.84,9.44-11.44,9.44     c-6.49,0-11.72-5.26-11.72-11.72c0-5.62,4.03-10.38,9.44-11.44v-27.8c0-1.28,1.01-2.28,2.28-2.28c1.27,0,2.28,1.02,2.28,2.28     v27.8c4.59,0.89,8.23,4.52,9.16,9.18h16.85c1.23,0,2.24,1.01,2.28,2.25C1289.48,157.28,1288.43,158.29,1287.2,158.29z"/></g><g><path fill="#097eb2" d="M1182.22,314.28c0,0.11-0.01,0.15-0.01,0.15h-102.29c-0.01-0.05-0.02-0.09-0.02-0.15h-8.11    c-3.99-27.47,27.13-27.08,27.13-27.08c10.26-15,20.46-18.17,29.04-16.51c13.22,2.54,22.63,16.51,22.63,16.51    C1183.9,287.2,1182.42,312.12,1182.22,314.28z"/><path fill="#a6c1e8" d="M1190.34,314.28c0,0.11-0.01,0.15-0.01,0.15h-110.41c-0.01-0.05-0.02-0.09-0.02-0.15    c-4-27.47,27.13-27.08,27.13-27.08c7.19-10.5,14.34-15.21,20.93-16.51c17.3-3.44,30.73,16.51,30.73,16.51    C1192.02,287.2,1190.52,312.13,1190.34,314.28z"/></g><g opacity=".9"><path fill="#097eb2" d="M394.25,428.96c-18.27-9.48-34.94-4.59-44.41,0.03c-8.37,15.83-15.53,37.57-13.9,64.27    c0.68,11.17,2.9,23.21,7.22,36.06c0.14,0.44,0.29,0.87,0.44,1.31c0,0,1.63,0.86,4.59,1.92c8.23,2.95,26.74,7.46,48.89-0.64    c1.53-0.56,3.07-1.17,4.63-1.86c0,0,0.07-0.18,0.21-0.53c1.1-2.82,6.13-16.71,7-36.23C409.74,475.24,406.97,452.37,394.25,428.96z     M371.9,481.12c-8.97,0-16.25-7.27-16.25-16.25c0-8.97,7.27-16.25,16.25-16.25s16.25,7.27,16.25,16.25    C388.15,473.85,380.88,481.12,371.9,481.12z"/><path fill="#ee4b4a" d="M394.25,428.96c-18.27-9.48-34.94-4.59-44.41,0.03c10.22-19.35,22.25-29.88,22.25-29.88    C381.62,408.94,388.84,419,394.25,428.96z"/><circle cx="371.9" cy="464.87" r="16.25" fill="none" stroke="#a6c1e8" stroke-miterlimit="10"/><circle cx="371.9" cy="464.87" r="16.25" fill="#52a7de" stroke="#a6c1e8" stroke-miterlimit="10" stroke-width="7"/><path fill="#e56913" d="M419.5,554.53c0,0-6.83-16.26-17.56-25c1.1-2.82,6.13-16.71,7-36.23    C412.56,496.99,433.51,520.38,419.5,554.53z"/><path fill="#e56913" d="M343.17,529.32c-10.89,8.68-17.82,25.21-17.82,25.21c-14.05-34.24,7.07-57.67,10.6-61.26    C336.63,504.44,338.85,516.48,343.17,529.32z"/><path fill="#ee4b4a" d="M397.1,531.91l-0.89,1.49c-2.51,4.18-6.42,7.32-11.03,8.88c-1.65,0.56-3.28,1-4.89,1.33h0    c-5.56,1.15-10.9,1.02-16.1-0.02c-1.09-0.21-2.17-0.47-3.24-0.77c-5.52-1.51-10.12-5.26-12.74-10.28    C356.44,535.5,374.94,540.01,397.1,531.91z"/><path fill="#fdcb08" d="M381.58,558.49c0,0-2.74-1.01-3.46-1.58c0,0,1.3,6.2-5.62,10.81c0,0-6.92-3.03-6.77-11.53    c0,0-2.02,2.31-3.31,2.31c0,0-4.87-7.98,1.77-14.9c5.2,1.04,10.54,1.17,16.1,0.02h0C381.79,545.57,385.45,551.46,381.58,558.49z"/></g><g><path fill="#ff4e59" d="M1278.08,410.28c-55.38-34.43-33.28-75.69-33.28-75.69c21.59-0.74,31.65-14.9,33.28-17.44"/><path fill="#ff4e59" d="M1278.08,317.15c1.63,2.54,11.69,16.7,33.28,17.44c0,0,22.11,41.26-33.28,75.69"/><path fill="#fff" d="M1280.27,361.23c-2.33,0-4.23,1.89-4.23,4.22c0,1.59,0.87,3.03,2.26,3.75v3.48c0,1.08,0.88,1.97,1.97,1.97      c1.08,0,1.97-0.88,1.97-1.97v-3.48c1.39-0.72,2.27-2.16,2.27-3.75C1284.51,363.12,1282.61,361.23,1280.27,361.23z       M1281.32,372.69c0,0.58-0.47,1.04-1.04,1.04s-1.04-0.47-1.04-1.04v-4.08l-0.28-0.12c-1.21-0.53-1.99-1.72-1.99-3.04      c0-1.82,1.48-3.31,3.31-3.31s3.32,1.49,3.32,3.31c0,1.32-0.78,2.51-2,3.04l-0.28,0.12V372.69z M1280.27,361.23      c-2.33,0-4.23,1.89-4.23,4.22c0,1.59,0.87,3.03,2.26,3.75v3.48c0,1.08,0.88,1.97,1.97,1.97c1.08,0,1.97-0.88,1.97-1.97v-3.48      c1.39-0.72,2.27-2.16,2.27-3.75C1284.51,363.12,1282.61,361.23,1280.27,361.23z M1281.32,372.69c0,0.58-0.47,1.04-1.04,1.04      s-1.04-0.47-1.04-1.04v-4.08l-0.28-0.12c-1.21-0.53-1.99-1.72-1.99-3.04c0-1.82,1.48-3.31,3.31-3.31s3.32,1.49,3.32,3.31      c0,1.32-0.78,2.51-2,3.04l-0.28,0.12V372.69z M1295.25,356.09h-29.96c-1.41,0-2.55,1.14-2.55,2.54v19.83      c0,1.4,1.14,2.54,2.55,2.54h29.96c1.41,0,2.55-1.14,2.55-2.54v-19.83C1297.81,357.23,1296.66,356.09,1295.25,356.09z       M1296.88,378.46c0,0.89-0.72,1.62-1.63,1.62h-29.96c-0.89,0-1.63-0.72-1.63-1.62v-19.83c0-0.89,0.73-1.62,1.63-1.62h29.96      c0.9,0,1.63,0.72,1.63,1.62V378.46z M1280.27,361.23c-2.33,0-4.23,1.89-4.23,4.22c0,1.59,0.87,3.03,2.26,3.75v3.48      c0,1.08,0.88,1.97,1.97,1.97c1.08,0,1.97-0.88,1.97-1.97v-3.48c1.39-0.72,2.27-2.16,2.27-3.75      C1284.51,363.12,1282.61,361.23,1280.27,361.23z M1281.32,372.69c0,0.58-0.47,1.04-1.04,1.04s-1.04-0.47-1.04-1.04v-4.08      l-0.28-0.12c-1.21-0.53-1.99-1.72-1.99-3.04c0-1.82,1.48-3.31,3.31-3.31s3.32,1.49,3.32,3.31c0,1.32-0.78,2.51-2,3.04      l-0.28,0.12V372.69z"/><path fill="#fff" d="M1295.25,357.01h-29.96c-0.89,0-1.63,0.72-1.63,1.62v19.83c0,0.89,0.73,1.62,1.63,1.62h29.96      c0.9,0,1.63-0.72,1.63-1.62v-19.83C1296.88,357.74,1296.16,357.01,1295.25,357.01z M1282.24,369.2v3.48      c0,1.08-0.88,1.97-1.97,1.97c-1.08,0-1.97-0.88-1.97-1.97v-3.48c-1.39-0.72-2.26-2.16-2.26-3.75c0-2.33,1.9-4.22,4.23-4.22      c2.33,0,4.24,1.89,4.24,4.22C1284.51,367.04,1283.63,368.48,1282.24,369.2z"/><path fill="#e56913" d="M1284.05,365.45c0,1.55-0.93,2.88-2.27,3.46v3.77c0,0.83-0.67,1.5-1.5,1.5s-1.5-0.67-1.5-1.5v-3.77       c-1.34-0.58-2.27-1.91-2.27-3.46c0-2.08,1.69-3.76,3.77-3.76S1284.05,363.38,1284.05,365.45z"/><path fill="#fff" d="M1289.05,343.65c-2.35-2.34-5.47-3.63-8.78-3.63c-6.84,0-12.41,5.57-12.41,12.41v4.59h24.82v-4.59      C1292.68,349.12,1291.39,346,1289.05,343.65z M1268.79,356.09v-3.66c0-6.33,5.15-11.49,11.49-11.49c3.07,0,5.95,1.19,8.12,3.36      c2.17,2.18,3.37,5.06,3.37,8.13v3.66H1268.79z"/></g><g><ellipse cx="210.27" cy="1317.34" fill="#e8e8e8" rx="69.48" ry="7.42"/><path fill="#707070" d="M255.47,1225.54c-43.45,11.36-93.14,0.57-93.14,0.57C193.85,1218.73,227.83,1219.21,255.47,1225.54z"/><path fill="#527535" d="M271.44,1126.96c1.78,0.75,10.39,3.56,19.66,3.9c7.96,0.29,6.32-10.53,5.69-13.6       c-0.09-0.4-0.51-0.65-0.9-0.5c-4.05,1.5-14.12,2.9-19.03,2.77c-1.31-0.04-2.52-0.83-2.94-2.06c-0.33-0.96-0.09-1.8,0.33-2.47       c0.72-1.15,2.04-1.77,3.39-1.75c2.6,0.05,8.11,0.12,13.09,0.06c5.1-0.06,5.61-1.95,5.55-2.9c-0.04-0.59-0.09-1.17-0.08-1.75       c0.23-13.86-2.87-16.72-6.63-19.16c-3.87-2.52-15.47-0.91-15.47-0.91s0.49,3.75-0.06,9.54c-0.18,1.86-0.67,3.69-1.5,5.35       c-2.19,4.39-3.57,1.75-4.09,0.29c-1.64-4.82,1.24-12.07,2.22-14.3c0.99-2.23-1.15-2.53-6.94-2.29       c-11.59,1.53-5.24,14.8-2.39,21.83c0.6,1.47,0.73,3.1,0.29,4.61c-1.4,4.77-5.25-1.16-6.52-4.58       c-3.13-5.91-1.69-17.21-1.36-19.46c0.03-0.21-0.14-0.39-0.34-0.38c-0.86,0.04-3.13,0.16-7.43,0.6       c-12.66,2.59-1.44,23.6,1.07,29.35c1.26,2.9,1.46,4.89,1.12,6.18c-0.4,1.52-2.23,2.14-3.53,1.27       c-3.57-2.39-5.16-9.35-6.29-14.22c-1.07-4.64-3.6-13.86-4.35-16.6c-0.12-0.45-0.58-0.72-1.03-0.6       c-1.06,0.29-3.21,0.99-6.68,2.69c-1.3,0.63-2.79,1.41-4.47,2.35c-6.65,3.72-7.91,7.76-8.14,9.38       c-0.06,0.43,0.05,0.86,0.32,1.19c0.9,1.1,3.33,4.07,6.32,7.55c1.1,1.28,2.28,2.63,3.49,3.97c0.47,0.53,0.95,1.06,1.43,1.58       c0.77,0.68,1.47,1.34,2.12,1.95c4.31,4.16,6.05,7.13,6.6,9.42c0.45,1.86-0.65,3.82-2.52,4.2c-2.78,0.57-5.02-2.54-6.5-5.23       c-0.09-0.17-0.19-0.34-0.28-0.52c-1.32-3.3-2.87-6.16-4.51-8.62c-1.21-1.83-2.46-3.44-3.68-4.82c-3.33-3.81-6.4-6-7.65-6.82       c-0.36-0.24-0.82-0.19-1.13,0.09c-1.14,1.06-4,3.9-7.4,8.75c-0.47,1.14-0.83,2.22-1.08,3.24v0.01       c-0.6,2.47-0.58,4.61-0.15,6.45c1.59,6.77,8.77,9.54,11.36,10.37c0.75,0.24,1.75,0.5,2.92,0.8c3.96,0.98,9.77,2.26,13.43,3.64       c1,0.37,1.93,0.91,2.71,1.64c1.99,1.85,0.61,2.75-0.7,3.17c-0.75,0.24-1.56,0.32-2.35,0.27c-15.98-0.88-23.28-7.27-25.86-10.28       c-0.82-0.95-1.16-1.57-1.16-1.57c0.01,0.43,0.02,0.86,0.04,1.27c0.68,16.18,7.29,18.41,12.4,20.48       c4.41,1.78,17.44-3.12,21.43-4.71c0.23-0.09,0.42,0.2,0.24,0.37c-14.33,13.77-16.41,56.55-16.51,77.93       c-0.01,3.03,0.01,5.63,0.04,7.65c0.04,2.56,2.29,4.51,4.84,4.2c2.26-0.27,3.92-2.26,3.78-4.54c-0.14-2.52-0.27-4.96-0.38-7.32       c-2.6-58.06,6.55-69.6,8.29-73.47c1.85-4.13,2.44-1.61,2.44-1.61c-1.73,6.22-0.56,12.2,1.41,17.14       c5.89,12.33,20.15,6.07,20.15,6.07c-9.11-4.64-12.38-11.1-14.32-16.82c-1.05-3.1,0.39-3.46,1.93-3.14       c1.55,0.33,2.89,1.3,3.79,2.61c1.26,1.83,3.78,5.6,8.54,13.05c7.92,12.4,23.77-6.14,23.77-6.14       c-21.2-5.2-24.3-10.29-28.65-18.04c-4.36-7.74,7.81-3.1,9.99-0.76c9.36,9.97,21.66,14.27,21.66,14.27       c8.49-6.14,8.27-18.59,8.27-18.59s-5.45,0.47-15.4,0.22c-8.77-0.22-13.68-2.51-16.68-4.66c-0.91-0.65-1.59-1.59-1.81-2.67       c-0.74-3.56,4.4-2.59,6.95-1.8c3.68,1.49,16.18,6.25,23.29,6.97c7.1,0.71,6.51-14.02,6.51-14.02       c-16.64,2.75-24.71,0.96-28.69-0.9c-1.57-0.73-2.71-2.26-2.8-3.99C263.7,1124.79,269.92,1126.33,271.44,1126.96z        M269.07,1113.26c0.84,0.03,1.49,0.93,1.46,2.01c-0.04,1.08-0.76,1.93-1.6,1.9c-0.85-0.04-1.5-0.93-1.46-2.01       C267.51,1114.08,268.23,1113.23,269.07,1113.26z M236.68,1143.7c-0.93-0.04-1.65-1.02-1.6-2.2c0.04-1.19,0.83-2.11,1.76-2.08       c0.93,0.03,1.64,1.01,1.6,2.2C238.39,1142.8,237.6,1143.73,236.68,1143.7z M243.63,1159.6c-0.79,0.42-2.03-0.4-2.79-1.82       c-0.75-1.42-0.72-2.91,0.06-3.33c0.79-0.42,2.04,0.4,2.79,1.82C244.44,1157.7,244.42,1159.19,243.63,1159.6z M249.09,1132.7       c-0.68-0.03-1.21-1.01-1.16-2.18c0.04-1.19,0.64-2.12,1.32-2.1c0.68,0.03,1.2,1.01,1.16,2.18       C250.37,1131.78,249.78,1132.72,249.09,1132.7z M261.81,1128.59c-0.96,1.29-2.32,1.9-3.03,1.36c-0.72-0.53-0.52-2.01,0.45-3.29       c0.96-1.29,2.32-1.9,3.04-1.37C262.97,1125.82,262.77,1127.31,261.81,1128.59z"/><path fill="#6f8a3b" d="M223.82,1122.32c-1,0.89-2.21,1.84-3.67,2.79c-4.46,2.9-11.19,5.8-21.09,6.89       c-0.49,0.06-0.99,0.11-1.49,0.15c-0.9,0.08-1.82,0.02-2.69-0.22c-1.49-0.42-3.1-1.38-0.91-3.56c0.86-0.86,1.9-1.51,3.01-1.97       c0.68-0.28,1.44-0.57,2.23-0.84v-0.01c5.41-1.9,12.98-3.69,16.18-4.84c0.31-0.11,0.67-0.25,1.08-0.42       c1.07-0.43,2.44-1.06,3.86-1.94c5.09-3.12,10.85-9.31,5.96-20.46l-0.17-0.39c-4.05-5.36-7.41-8.49-8.75-9.65       c-0.37-0.32-0.89-0.35-1.29-0.06c-2.59,1.82-12.05,9.24-17.21,23.65c-1.57,3.22-4.1,7.37-7.49,6.79       c-2.14-0.36-3.46-2.54-3.03-4.67c0.62-3.02,3-7.13,9.46-13.27c5.46-6.42,10.79-13.38,12.27-15.33c0.29-0.39,0.4-0.88,0.32-1.36       c-0.32-1.83-1.91-6.38-9.61-10.35c-7.17-3.69-11.19-4.89-12.86-5.28c-0.52-0.12-1.03,0.2-1.15,0.72       c-0.75,3.13-3.26,13.72-4.3,19.03c-1.09,5.58-2.63,13.55-6.59,16.4c-1.44,1.04-3.55,0.4-4.06-1.3       c-0.44-1.44-0.28-3.72,1.03-7.06c2.62-6.63,14.55-30.96,0.06-33.41c-4.9-0.33-7.5-0.39-8.47-0.4c-0.24,0-0.42,0.22-0.37,0.45       c0.46,2.55,2.54,15.34-0.79,22.17c-1.3,3.93-5.45,10.83-7.22,5.46c-0.57-1.71-0.48-3.56,0.14-5.26       c2.96-8.11,9.67-23.43-3.57-24.72c-6.58-0.04-9,0.39-7.79,2.88c1.21,2.49,4.76,10.62,3.09,16.16       c-0.54,1.68-2.01,4.74-4.66-0.17c-1.01-1.86-1.64-3.92-1.91-6.02c-0.85-6.56-0.45-10.85-0.45-10.85s-13.25-1.37-17.55,1.64       c-4.18,2.93-7.59,6.3-6.78,22.04c0.03,0.67,0,1.33-0.02,2c-0.03,1.07,0.63,3.2,6.43,3.08c5.65-0.12,11.92-0.42,14.87-0.57       c1.53-0.08,3.06,0.57,3.92,1.85c0.51,0.75,0.81,1.7,0.47,2.8c-0.43,1.42-1.78,2.37-3.26,2.47c-5.58,0.34-17.08-0.86-21.74-2.4       c-0.45-0.15-0.92,0.14-1,0.6c-0.59,3.51-2.03,15.88,7,15.24c10.52-0.75,20.2-4.28,22.19-5.2c1.7-0.78,8.72-2.77,8.64,2.1       c-0.04,1.98-1.26,3.75-3.03,4.64c-4.46,2.26-13.55,4.62-32.57,2.15c0,0-0.09,16.77,7.95,15.68c8.05-1.09,22.07-6.99,26.2-8.84       c2.86-0.99,8.67-2.29,7.96,1.78c-0.22,1.25-0.95,2.34-1.95,3.11c-3.32,2.57-8.82,5.36-18.77,5.96       c-11.31,0.68-17.51,0.35-17.51,0.35s0.24,14.17,10.13,20.81c0,0,13.8-5.37,24.06-17.06c2.39-2.75,16.03-8.5,11.38,0.47       c-4.65,8.98-7.96,14.88-31.86,21.62c0,0,18.74,20.45,27.26,6.05c5.12-8.66,7.83-13.05,9.19-15.17c0.97-1.52,2.45-2.67,4.2-3.1       c1.74-0.43,3.39-0.09,2.31,3.49c-1.98,6.59-5.44,14.06-15.62,19.69c0,0,16.47,6.56,22.67-7.68c2.04-5.69,3.14-12.54,0.93-19.53       c0,0,0.57-2.88,2.83,1.73c2.21,4.51,13.88,18.14,12.15,91.51v0.06c-0.03,2.57,1.92,4.72,4.48,4.94       c2.89,0.25,5.37-2.04,5.33-4.94v-0.02c-0.32-18.58-2.86-79.38-22.06-96.62c-0.21-0.19-0.01-0.53,0.26-0.44       c1.88,0.68,5.5,1.92,9.46,3c0.37,0.11,0.75,0.21,1.13,0.3c4.73,1.24,9.75,2.16,12.76,1.57c0.45-0.09,0.84-0.21,1.19-0.36       c3.52-1.57,7.7-3.23,10.41-8.57c1.09-2.13,1.94-4.85,2.43-8.39c0.32-2.36,0.48-5.07,0.45-8.23       C227.82,1117.62,226.74,1119.71,223.82,1122.32z M147.93,1094.35c-0.96,0.06-1.81-0.87-1.9-2.1c-0.09-1.22,0.62-2.27,1.58-2.34       c0.96-0.06,1.81,0.87,1.9,2.1C149.6,1093.23,148.89,1094.28,147.93,1094.35z M159.97,1108.48c-0.79,0.63-2.36-0.01-3.5-1.43       c-1.14-1.42-1.43-3.1-0.64-3.73c0.79-0.63,2.36,0.01,3.5,1.43C160.47,1106.18,160.76,1107.84,159.97,1108.48z M171.08,1111.22       c-0.78,0.05-1.49-0.99-1.58-2.33c-0.09-1.34,0.46-2.48,1.24-2.53c0.78-0.06,1.48,0.98,1.57,2.33       C172.41,1110.03,171.86,1111.16,171.08,1111.22z M181.44,1139.42c-0.8,1.64-2.18,2.62-3.1,2.17c-0.91-0.45-1.01-2.13-0.21-3.78       c0.8-1.64,2.18-2.62,3.1-2.17C182.15,1136.08,182.24,1137.77,181.44,1139.42z M185.63,1123.24c-1.05,0.08-1.98-0.95-2.08-2.29       c-0.1-1.34,0.68-2.49,1.73-2.57c1.05-0.07,1.98,0.96,2.08,2.29C187.45,1122.02,186.67,1123.17,185.63,1123.24z"/><path fill="#527535" d="M199.81,1240.55c-0.4-1.36-0.92-3.12-1.57-5.17c-3.23-10.21-9.49-27.6-17.34-37.79       c-1.86-2.15-4.1-4.27-6.6-6.35c-0.36-0.22-0.73-0.43-1.09-0.61c-0.12-0.06-0.1-0.22,0.01-0.27c-0.33-0.27-0.67-0.53-1.01-0.8       c-0.06,0.05-0.13,0.09-0.2,0.12c-0.5,0.17-1.07-0.19-1.29-0.82c-0.06-0.17-0.09-0.33-0.09-0.5       c-15.66-11.64-38.39-21.41-47.15-24.97c-0.24,1.94,0.11,4.68,1.52,8.98c0.12,0.36,0.2,0.73,0.29,1.1c0.14,0.6,0.83,1.67,4,0.73       c3.09-0.91,6.5-2.01,8.1-2.54c0.83-0.27,1.78-0.14,2.44,0.43c0.4,0.34,0.7,0.81,0.68,1.47c-0.03,0.85-0.63,1.57-1.43,1.85       c-3.02,1.01-9.54,2.08-12.33,1.93c-0.27-0.01-0.48,0.22-0.46,0.48c0.2,2.03,1.26,9.05,6.14,7.35       c5.68-1.98,10.48-5.38,11.44-6.18c0.82-0.68,4.38-2.83,5.07-0.14c0.28,1.1-0.14,2.26-0.97,3.01       c-2.11,1.91-6.77,4.57-17.62,6.05c0,0,2.46,9.25,6.73,7.45c4.27-1.8,11.11-7.15,13.11-8.78c1.42-0.97,4.43-2.56,4.65-0.21       c0.06,0.72-0.18,1.43-0.61,2.01c-1.44,1.91-4.05,4.27-9.45,6.09c-6.12,2.06-9.59,2.81-9.59,2.81s2.25,7.77,8.69,9.95       c0,0,6.8-5.02,10.7-12.99c0.9-1.87,7.55-7.08,6.34-1.44c-1.22,5.63-2.16,9.39-14.32,16.67c0,0,13.38,8.47,15.92-0.74       c1.52-5.53,2.36-8.36,2.8-9.73c0.3-0.98,0.95-1.84,1.85-2.34c0.89-0.5,1.85-0.55,1.8,1.57c-0.11,3.92-0.9,8.56-5.66,13.18       c0,0,10.05,1.15,11.33-7.62c0.27-3.44-0.14-7.38-2.41-10.9c0,0-0.12-1.67,1.82,0.53c1.79,2.03,9.42,7.27,18.68,41.97       c0.56,2.09,1.13,4.3,1.7,6.61c0.35,1.44,1.76,2.35,3.22,2.09C199.25,1243.79,200.27,1242.14,199.81,1240.55z M150.29,1180.79       c-0.45,0.16-0.98-0.18-1.18-0.75c-0.2-0.57,0-1.16,0.45-1.32c0.45-0.16,0.97,0.18,1.17,0.75       C150.94,1180.04,150.74,1180.63,150.29,1180.79z M157.86,1185.97c-0.29,0.41-1.13,0.31-1.85-0.22       c-0.73-0.53-1.09-1.29-0.79-1.7c0.29-0.4,1.12-0.3,1.85,0.23C157.8,1184.8,158.16,1185.56,157.86,1185.97z M163.51,1185.84       c-0.37,0.13-0.84-0.28-1.06-0.91c-0.22-0.63-0.1-1.24,0.26-1.37c0.37-0.13,0.83,0.28,1.06,0.91       C163.99,1185.1,163.87,1185.71,163.51,1185.84z M172.1,1197.93c-0.17,0.89-0.7,1.53-1.2,1.44c-0.49-0.09-0.75-0.88-0.58-1.78       c0.17-0.88,0.7-1.53,1.19-1.44C172,1196.25,172.26,1197.05,172.1,1197.93z"/><path fill="#aaa" d="M256.57,1225.54v56.37c0,20.47-16.59,37.06-37.06,37.06h-19.03c-20.46,0-37.06-16.59-37.06-37.06v-55.79     C163.43,1226.12,213.13,1236.91,256.57,1225.54z"/></g><g><path fill="#a6c1e8" d="M394.91,325.31v50.51c0,2.27,1.84,4.11,4.11,4.11h133.9c2.27,0,4.11-1.84,4.11-4.11v-50.51H394.91z      M440.5,367.87h-33.26v-33.82h33.26V367.87z"/><path fill="#097eb2" d="M532.92,315.78h-133.9c-2.6,0-4.7,2.1-4.7,4.7v5.43h143.29v-5.43      C537.61,317.88,535.51,315.78,532.92,315.78z M536.44,324.73H395.5v-4.25c0-1.95,1.59-3.52,3.52-3.52h133.9      c1.94,0,3.52,1.57,3.52,3.52V324.73z"/><path fill="#097eb2" d="M536.44,320.48v4.25H395.5v-4.25c0-1.95,1.59-3.52,3.52-3.52h133.9      C534.85,316.96,536.44,318.53,536.44,320.48z"/><path fill="#158db7" d="M441.08,368.46h-34.43v-34.99h34.43V368.46z M407.83,367.28h32.08v-32.65h-32.08V367.28z"/><rect width="74.71" height="1.17" x="448.31" y="341.83" fill="#158db7"/><rect width="74.71" height="1.17" x="448.31" y="349.45" fill="#158db7"/><rect width="74.71" height="1.17" x="448.31" y="357.88" fill="#158db7"/></g></svg>